<?xml version="1.0" ?><svg xmlns="http://www.w3.org/2000/svg" width="24" height="24" viewBox="0 0 24 24" fill="none"><g id="letter-c"><g id="Union" filter="url(#filter0_d_1701_1144)"><path fill-rule="evenodd" clip-rule="evenodd" d="M12.75 21.5C16.7541 21.5 20 18.2541 20 14.25V9.75C20 5.74594 16.7541 2.5 12.75 2.5H11.25C7.24594 2.5 4 5.74593 4 9.75V14.25C4 18.2541 7.24593 21.5 11.25 21.5H12.75Z" fill="white"/></g><path id="icon" d="M6 14.25C6 17.1495 8.3505 19.5 11.25 19.5H12.75C15.6495 19.5 18 17.1495 18 14.25V14H15V14.25C15 15.4926 13.9926 16.5 12.75 16.5H11.25C10.0074 16.5 9 15.4926 9 14.25L9 9.75C9 8.50736 10.0074 7.5 11.25 7.5H12.75C13.9926 7.5 15 8.50736 15 9.75V10H18V9.75C18 6.85051 15.6495 4.5 12.75 4.5H11.25C8.35051 4.5 6 6.8505 6 9.75V14.25Z" fill="#1452CC"/></g><defs><filter id="filter0_d_1701_1144" x="2" y="1" width="20" height="23" filterUnits="userSpaceOnUse" color-interpolation-filters="sRGB"><feFlood flood-opacity="0" result="BackgroundImageFix"/><feColorMatrix in="SourceAlpha" type="matrix" values="0 0 0 0 0 0 0 0 0 0 0 0 0 0 0 0 0 0 127 0" result="hardAlpha"/><feOffset dy="0.5"/><feGaussianBlur stdDeviation="1"/><feComposite in2="hardAlpha" operator="out"/><feColorMatrix type="matrix" values="0 0 0 0 0 0 0 0 0 0 0 0 0 0 0 0 0 0 0.25 0"/><feBlend mode="normal" in2="BackgroundImageFix" result="effect1_dropShadow_1701_1144"/><feBlend mode="normal" in="SourceGraphic" in2="effect1_dropShadow_1701_1144" result="shape"/></filter></defs></svg>